<?xml version="1.0" encoding="UTF-8"?><svg id="Layer_1" xmlns="http://www.w3.org/2000/svg" viewBox="0 0 109 563.64"><defs><style>.cls-1{fill:#c98847;}</style></defs><circle class="cls-1" cx="83" cy="20.47" r="5"/><path class="cls-1" d="M73.49,16.9c-1.36-1.33-3.52-1.4-5.07-.3h0c-.85.6-1.77,1.05-2.73,1.33-1.75.53-3.63.53-5.38,0-.96-.29-1.89-.74-2.73-1.34h0c-1.55-1.11-3.71-1.04-5.07.3-.93.91-1.51,2.17-1.51,3.57s.58,2.67,1.51,3.57c1.36,1.33,3.52,1.4,5.07.3h0c.84-.6,1.77-1.05,2.73-1.34,1.75-.52,3.63-.52,5.38,0,.96.28,1.88.73,2.73,1.33h0c1.55,1.11,3.71,1.04,5.07-.3.93-.91,1.51-2.17,1.51-3.57s-.58-2.67-1.51-3.57Z"/><circle class="cls-1" cx="83" cy="52.13" r="5"/><path class="cls-1" d="M73.49,48.55c-1.36-1.33-3.52-1.4-5.07-.3h0c-.85.6-1.77,1.05-2.73,1.33-1.75.53-3.63.53-5.38,0-.96-.29-1.89-.74-2.73-1.34h0c-1.55-1.11-3.71-1.04-5.07.3-.93.91-1.51,2.17-1.51,3.57s.58,2.67,1.51,3.57c1.36,1.33,3.52,1.4,5.07.3h0c.84-.6,1.77-1.05,2.73-1.34,1.75-.52,3.63-.52,5.38,0,.96.28,1.88.73,2.73,1.33h0c1.55,1.11,3.71,1.04,5.07-.3.93-.91,1.51-2.17,1.51-3.57s-.58-2.67-1.51-3.57Z"/><path class="cls-1" d="M86.49,1.07c-1.36-1.33-3.52-1.4-5.07-.3h0c-.85.6-1.77,1.05-2.73,1.33-1.75.53-3.63.53-5.38,0-.96-.29-1.89-.74-2.73-1.34h0c-1.55-1.11-3.71-1.04-5.07.3-.93.91-1.51,2.17-1.51,3.57s.58,2.67,1.51,3.57c1.36,1.33,3.52,1.4,5.07.3h0c.84-.6,1.77-1.05,2.73-1.34,1.75-.52,3.63-.52,5.38,0,.96.28,1.88.73,2.73,1.33h0c1.55,1.11,3.71,1.04,5.07-.3.93-.91,1.51-2.17,1.51-3.57s-.58-2.67-1.51-3.57Z"/><path class="cls-1" d="M86.49,32.73c-1.36-1.33-3.52-1.4-5.07-.3h0c-.85.6-1.77,1.05-2.73,1.33-1.75.53-3.63.53-5.38,0-.96-.29-1.89-.74-2.73-1.34h0c-1.55-1.11-3.71-1.04-5.07.3-.93.91-1.51,2.17-1.51,3.57s.58,2.67,1.51,3.57c1.36,1.33,3.52,1.4,5.07.3h0c.84-.6,1.77-1.05,2.73-1.34,1.75-.52,3.63-.52,5.38,0,.96.28,1.88.73,2.73,1.33h0c1.55,1.11,3.71,1.04,5.07-.3.93-.91,1.51-2.17,1.51-3.57s-.58-2.67-1.51-3.57Z"/><circle class="cls-1" cx="78" cy="83.79" r="5"/><path class="cls-1" d="M68.49,80.21c-1.36-1.33-3.52-1.4-5.07-.3h0c-.85.6-1.77,1.05-2.73,1.33-1.75.53-3.63.53-5.38,0-.96-.29-1.89-.74-2.73-1.34h0c-1.55-1.11-3.71-1.04-5.07.3-.93.91-1.51,2.17-1.51,3.57s.58,2.67,1.51,3.57c1.36,1.33,3.52,1.4,5.07.3h0c.84-.6,1.77-1.05,2.73-1.34,1.75-.52,3.63-.52,5.38,0,.96.28,1.88.73,2.73,1.33h0c1.55,1.11,3.71,1.04,5.07-.3.93-.91,1.51-2.17,1.51-3.57s-.58-2.67-1.51-3.57Z"/><path class="cls-1" d="M84.49,64.38c-1.36-1.33-3.52-1.4-5.07-.3h0c-.85.6-1.77,1.05-2.73,1.33-1.75.53-3.63.53-5.38,0-.96-.29-1.89-.74-2.73-1.34h0c-1.55-1.11-3.71-1.04-5.07.3-.93.91-1.51,2.17-1.51,3.57s.58,2.67,1.51,3.57c1.36,1.33,3.52,1.4,5.07.3h0c.84-.6,1.77-1.05,2.73-1.34,1.75-.52,3.63-.52,5.38,0,.96.28,1.88.73,2.73,1.33h0c1.55,1.11,3.71,1.04,5.07-.3.93-.91,1.51-2.17,1.51-3.57s-.58-2.67-1.51-3.57Z"/><circle class="cls-1" cx="69" cy="115.44" r="5"/><path class="cls-1" d="M59.49,111.87c-1.36-1.33-3.52-1.4-5.07-.3h0c-.85.6-1.77,1.05-2.73,1.33-1.75.53-3.63.53-5.38,0-.96-.29-1.89-.74-2.73-1.34h0c-1.55-1.11-3.71-1.04-5.07.3-.93.91-1.51,2.17-1.51,3.57s.58,2.67,1.51,3.57c1.36,1.33,3.52,1.4,5.07.3h0c.84-.6,1.77-1.05,2.73-1.34,1.75-.52,3.63-.52,5.38,0,.96.28,1.88.73,2.73,1.33h0c1.55,1.11,3.71,1.04,5.07-.3.93-.91,1.51-2.17,1.51-3.57s-.58-2.67-1.51-3.57Z"/><path class="cls-1" d="M77.49,96.04c-1.36-1.33-3.52-1.4-5.07-.3h0c-.85.6-1.77,1.05-2.73,1.33-1.75.53-3.63.53-5.38,0-.96-.29-1.89-.74-2.73-1.34h0c-1.55-1.11-3.71-1.04-5.07.3-.93.91-1.51,2.17-1.51,3.57s.58,2.67,1.51,3.57c1.36,1.33,3.52,1.4,5.07.3h0c.84-.6,1.77-1.05,2.73-1.34,1.75-.52,3.63-.52,5.38,0,.96.28,1.88.73,2.73,1.33h0c1.55,1.11,3.71,1.04,5.07-.3.93-.91,1.51-2.17,1.51-3.57s-.58-2.67-1.51-3.57Z"/><circle class="cls-1" cx="59" cy="147.1" r="5"/><path class="cls-1" d="M49.49,143.53c-1.36-1.33-3.52-1.4-5.07-.3h0c-.85.6-1.77,1.05-2.73,1.33-1.75.53-3.63.53-5.38,0-.96-.29-1.89-.74-2.73-1.34h0c-1.55-1.11-3.71-1.04-5.07.3-.93.91-1.51,2.17-1.51,3.57s.58,2.67,1.51,3.57c1.36,1.33,3.52,1.4,5.07.3h0c.84-.6,1.77-1.05,2.73-1.34,1.75-.52,3.63-.52,5.38,0,.96.28,1.88.73,2.73,1.33h0c1.55,1.11,3.71,1.04,5.07-.3.93-.91,1.51-2.17,1.51-3.57s-.58-2.67-1.51-3.57Z"/><path class="cls-1" d="M67.49,127.7c-1.36-1.33-3.52-1.4-5.07-.3h0c-.85.6-1.77,1.05-2.73,1.33-1.75.53-3.63.53-5.38,0-.96-.29-1.89-.74-2.73-1.34h0c-1.55-1.11-3.71-1.04-5.07.3-.93.91-1.51,2.17-1.51,3.57s.58,2.67,1.51,3.57c1.36,1.33,3.52,1.4,5.07.3h0c.84-.6,1.77-1.05,2.73-1.34,1.75-.52,3.63-.52,5.38,0,.96.28,1.88.73,2.73,1.33h0c1.55,1.11,3.71,1.04,5.07-.3.93-.91,1.51-2.17,1.51-3.57s-.58-2.67-1.51-3.57Z"/><circle class="cls-1" cx="46" cy="178.76" r="5"/><path class="cls-1" d="M36.49,175.18c-1.36-1.33-3.52-1.4-5.07-.3h0c-.85.6-1.77,1.05-2.73,1.33-1.75.53-3.63.53-5.38,0-.96-.29-1.89-.74-2.73-1.34h0c-1.55-1.11-3.71-1.04-5.07.3-.93.91-1.51,2.17-1.51,3.57s.58,2.67,1.51,3.57c1.36,1.33,3.52,1.4,5.07.3h0c.84-.6,1.77-1.05,2.73-1.34,1.75-.52,3.63-.52,5.38,0,.96.28,1.88.73,2.73,1.33h0c1.55,1.11,3.71,1.04,5.07-.3.93-.91,1.51-2.17,1.51-3.57s-.58-2.67-1.51-3.57Z"/><path class="cls-1" d="M54.49,159.35c-1.36-1.33-3.52-1.4-5.07-.3h0c-.85.6-1.77,1.05-2.73,1.33-1.75.53-3.63.53-5.38,0-.96-.29-1.89-.74-2.73-1.34h0c-1.55-1.11-3.71-1.04-5.07.3-.93.91-1.51,2.17-1.51,3.57s.58,2.67,1.51,3.57c1.36,1.33,3.52,1.4,5.07.3h0c.84-.6,1.77-1.05,2.73-1.34,1.75-.52,3.63-.52,5.38,0,.96.28,1.88.73,2.73,1.33h0c1.55,1.11,3.71,1.04,5.07-.3.93-.91,1.51-2.17,1.51-3.57s-.58-2.67-1.51-3.57Z"/><circle class="cls-1" cx="39" cy="210.41" r="5"/><path class="cls-1" d="M29.49,206.84c-1.36-1.33-3.52-1.4-5.07-.3h0c-.85.6-1.77,1.05-2.73,1.33-1.75.53-3.63.53-5.38,0-.96-.29-1.89-.74-2.73-1.34h0c-1.55-1.11-3.71-1.04-5.07.3-.93.91-1.51,2.17-1.51,3.57s.58,2.67,1.51,3.57c1.36,1.33,3.52,1.4,5.07.3h0c.84-.6,1.77-1.05,2.73-1.34,1.75-.52,3.63-.52,5.38,0,.96.28,1.88.73,2.73,1.33h0c1.55,1.11,3.71,1.04,5.07-.3.93-.91,1.51-2.17,1.51-3.57s-.58-2.67-1.51-3.57Z"/><path class="cls-1" d="M44.49,191.01c-1.36-1.33-3.52-1.4-5.07-.3h0c-.85.6-1.77,1.05-2.73,1.33-1.75.53-3.63.53-5.38,0-.96-.29-1.89-.74-2.73-1.34h0c-1.55-1.11-3.71-1.04-5.07.3-.93.91-1.51,2.17-1.51,3.57s.58,2.67,1.51,3.57c1.36,1.33,3.52,1.4,5.07.3h0c.84-.6,1.77-1.05,2.73-1.34,1.75-.52,3.63-.52,5.38,0,.96.28,1.88.73,2.73,1.33h0c1.55,1.11,3.71,1.04,5.07-.3.93-.91,1.51-2.17,1.51-3.57s-.58-2.67-1.51-3.57Z"/><circle class="cls-1" cx="35" cy="242.07" r="5"/><path class="cls-1" d="M25.49,238.5c-1.36-1.33-3.52-1.4-5.07-.3h0c-.85.6-1.77,1.05-2.73,1.33-1.75.53-3.63.53-5.38,0-.96-.29-1.89-.74-2.73-1.34h0c-1.55-1.11-3.71-1.04-5.07.3-.93.91-1.51,2.17-1.51,3.57s.58,2.67,1.51,3.57c1.36,1.33,3.52,1.4,5.07.3h0c.84-.6,1.77-1.05,2.73-1.34,1.75-.52,3.63-.52,5.38,0,.96.28,1.88.73,2.73,1.33h0c1.55,1.11,3.71,1.04,5.07-.3.93-.91,1.51-2.17,1.51-3.57s-.58-2.67-1.51-3.57Z"/><path class="cls-1" d="M38.49,222.67c-1.36-1.33-3.52-1.4-5.07-.3h0c-.85.6-1.77,1.05-2.73,1.33-1.75.53-3.63.53-5.38,0-.96-.29-1.89-.74-2.73-1.34h0c-1.55-1.11-3.71-1.04-5.07.3-.93.91-1.51,2.17-1.51,3.57s.58,2.67,1.51,3.57c1.36,1.33,3.52,1.4,5.07.3h0c.84-.6,1.77-1.05,2.73-1.34,1.75-.52,3.63-.52,5.38,0,.96.28,1.88.73,2.73,1.33h0c1.55,1.11,3.71,1.04,5.07-.3.93-.91,1.51-2.17,1.51-3.57s-.58-2.67-1.51-3.57Z"/><circle class="cls-1" cx="32" cy="273.73" r="5"/><path class="cls-1" d="M22.49,270.15c-1.36-1.33-3.52-1.4-5.07-.3h0c-.85.6-1.77,1.05-2.73,1.33-1.75.53-3.63.53-5.38,0-.96-.29-1.89-.74-2.73-1.34h0c-1.55-1.11-3.71-1.04-5.07.3-.93.91-1.51,2.17-1.51,3.57s.58,2.67,1.51,3.57c1.36,1.33,3.52,1.4,5.07.3h0c.84-.6,1.77-1.05,2.73-1.34,1.75-.52,3.63-.52,5.38,0,.96.28,1.88.73,2.73,1.33h0c1.55,1.11,3.71,1.04,5.07-.3.93-.91,1.51-2.17,1.51-3.57s-.58-2.67-1.51-3.57Z"/><path class="cls-1" d="M36.49,254.33c-1.36-1.33-3.52-1.4-5.07-.3h0c-.85.6-1.77,1.05-2.73,1.33-1.75.53-3.63.53-5.38,0-.96-.29-1.89-.74-2.73-1.34h0c-1.55-1.11-3.71-1.04-5.07.3-.93.91-1.51,2.17-1.51,3.57s.58,2.67,1.51,3.57c1.36,1.33,3.52,1.4,5.07.3h0c.84-.6,1.77-1.05,2.73-1.34,1.75-.52,3.63-.52,5.38,0,.96.28,1.88.73,2.73,1.33h0c1.55,1.11,3.71,1.04,5.07-.3.93-.91,1.51-2.17,1.51-3.57s-.58-2.67-1.51-3.57Z"/><circle class="cls-1" cx="35" cy="305.39" r="5"/><path class="cls-1" d="M25.49,301.81c-1.36-1.33-3.52-1.4-5.07-.3h0c-.85.6-1.77,1.05-2.73,1.33-1.75.53-3.63.53-5.38,0-.96-.29-1.89-.74-2.73-1.34h0c-1.55-1.11-3.71-1.04-5.07.3-.93.91-1.51,2.17-1.51,3.57s.58,2.67,1.51,3.57c1.36,1.33,3.52,1.4,5.07.3h0c.84-.6,1.77-1.05,2.73-1.34,1.75-.52,3.63-.52,5.38,0,.96.28,1.88.73,2.73,1.33h0c1.55,1.11,3.71,1.04,5.07-.3.93-.91,1.51-2.17,1.51-3.57s-.58-2.67-1.51-3.57Z"/><path class="cls-1" d="M36.49,285.98c-1.36-1.33-3.52-1.4-5.07-.3h0c-.85.6-1.77,1.05-2.73,1.33-1.75.53-3.63.53-5.38,0-.96-.29-1.89-.74-2.73-1.34h0c-1.55-1.11-3.71-1.04-5.07.3-.93.91-1.51,2.17-1.51,3.57s.58,2.67,1.51,3.57c1.36,1.33,3.52,1.4,5.07.3h0c.84-.6,1.77-1.05,2.73-1.34,1.75-.52,3.63-.52,5.38,0,.96.28,1.88.73,2.73,1.33h0c1.55,1.11,3.71,1.04,5.07-.3.93-.91,1.51-2.17,1.51-3.57s-.58-2.67-1.51-3.57Z"/><circle class="cls-1" cx="42" cy="337.04" r="5"/><path class="cls-1" d="M32.49,333.47c-1.36-1.33-3.52-1.4-5.07-.3h0c-.85.6-1.77,1.05-2.73,1.33-1.75.53-3.63.53-5.38,0-.96-.29-1.89-.74-2.73-1.34h0c-1.55-1.11-3.71-1.04-5.07.3-.93.91-1.51,2.17-1.51,3.57s.58,2.67,1.51,3.57c1.36,1.33,3.52,1.4,5.07.3h0c.84-.6,1.77-1.05,2.73-1.34,1.75-.52,3.63-.52,5.38,0,.96.28,1.88.73,2.73,1.33h0c1.55,1.11,3.71,1.04,5.07-.3.93-.91,1.51-2.17,1.51-3.57s-.58-2.67-1.51-3.57Z"/><path class="cls-1" d="M41.49,317.64c-1.36-1.33-3.52-1.4-5.07-.3h0c-.85.6-1.77,1.05-2.73,1.33-1.75.53-3.63.53-5.38,0-.96-.29-1.89-.74-2.73-1.34h0c-1.55-1.11-3.71-1.04-5.07.3-.93.91-1.51,2.17-1.51,3.57s.58,2.67,1.51,3.57c1.36,1.33,3.52,1.4,5.07.3h0c.84-.6,1.77-1.05,2.73-1.34,1.75-.52,3.63-.52,5.38,0,.96.28,1.88.73,2.73,1.33h0c1.55,1.11,3.71,1.04,5.07-.3.93-.91,1.51-2.17,1.51-3.57s-.58-2.67-1.51-3.57Z"/><circle class="cls-1" cx="55" cy="368.7" r="5"/><path class="cls-1" d="M45.49,365.13c-1.36-1.33-3.52-1.4-5.07-.3h0c-.85.6-1.77,1.05-2.73,1.33-1.75.53-3.63.53-5.38,0-.96-.29-1.89-.74-2.73-1.34h0c-1.55-1.11-3.71-1.04-5.07.3-.93.91-1.51,2.17-1.51,3.57s.58,2.67,1.51,3.57c1.36,1.33,3.52,1.4,5.07.3h0c.84-.6,1.77-1.05,2.73-1.34,1.75-.52,3.63-.52,5.38,0,.96.28,1.88.73,2.73,1.33h0c1.55,1.11,3.71,1.04,5.07-.3.93-.91,1.51-2.17,1.51-3.57s-.58-2.67-1.51-3.57Z"/><path class="cls-1" d="M52.49,349.3c-1.36-1.33-3.52-1.4-5.07-.3h0c-.85.6-1.77,1.05-2.73,1.33-1.75.53-3.63.53-5.38,0-.96-.29-1.89-.74-2.73-1.34h0c-1.55-1.11-3.71-1.04-5.07.3-.93.91-1.51,2.17-1.51,3.57s.58,2.67,1.51,3.57c1.36,1.33,3.52,1.4,5.07.3h0c.84-.6,1.77-1.05,2.73-1.34,1.75-.52,3.63-.52,5.38,0,.96.28,1.88.73,2.73,1.33h0c1.55,1.11,3.71,1.04,5.07-.3.93-.91,1.51-2.17,1.51-3.57s-.58-2.67-1.51-3.57Z"/><circle class="cls-1" cx="70" cy="400.36" r="5"/><path class="cls-1" d="M60.49,396.78c-1.36-1.33-3.52-1.4-5.07-.3h0c-.85.6-1.77,1.05-2.73,1.33-1.75.53-3.63.53-5.38,0-.96-.29-1.89-.74-2.73-1.34h0c-1.55-1.11-3.71-1.04-5.07.3-.93.91-1.51,2.17-1.51,3.57s.58,2.67,1.51,3.57c1.36,1.33,3.52,1.4,5.07.3h0c.84-.6,1.77-1.05,2.73-1.34,1.75-.52,3.63-.52,5.38,0,.96.28,1.88.73,2.73,1.33h0c1.55,1.11,3.71,1.04,5.07-.3.93-.91,1.51-2.17,1.51-3.57s-.58-2.67-1.51-3.57Z"/><path class="cls-1" d="M65.49,380.95c-1.36-1.33-3.52-1.4-5.07-.3h0c-.85.6-1.77,1.05-2.73,1.33-1.75.53-3.63.53-5.38,0-.96-.29-1.89-.74-2.73-1.34h0c-1.55-1.11-3.71-1.04-5.07.3-.93.91-1.51,2.17-1.51,3.57s.58,2.67,1.51,3.57c1.36,1.33,3.52,1.4,5.07.3h0c.84-.6,1.77-1.05,2.73-1.34,1.75-.52,3.63-.52,5.38,0,.96.28,1.88.73,2.73,1.33h0c1.55,1.11,3.71,1.04,5.07-.3.93-.91,1.51-2.17,1.51-3.57s-.58-2.67-1.51-3.57Z"/><circle class="cls-1" cx="83" cy="432.01" r="5"/><path class="cls-1" d="M73.49,428.44c-1.36-1.33-3.52-1.4-5.07-.3h0c-.85.6-1.77,1.05-2.73,1.33-1.75.53-3.63.53-5.38,0-.96-.29-1.89-.74-2.73-1.34h0c-1.55-1.11-3.71-1.04-5.07.3-.93.91-1.51,2.17-1.51,3.57s.58,2.67,1.51,3.57c1.36,1.33,3.52,1.4,5.07.3h0c.84-.6,1.77-1.05,2.73-1.34,1.75-.52,3.63-.52,5.38,0,.96.28,1.88.73,2.73,1.33h0c1.55,1.11,3.71,1.04,5.07-.3.93-.91,1.51-2.17,1.51-3.57s-.58-2.67-1.51-3.57Z"/><path class="cls-1" d="M79.49,412.61c-1.36-1.33-3.52-1.4-5.07-.3h0c-.85.6-1.77,1.05-2.73,1.33-1.75.53-3.63.53-5.38,0-.96-.29-1.89-.74-2.73-1.34h0c-1.55-1.11-3.71-1.04-5.07.3-.93.91-1.51,2.17-1.51,3.57s.58,2.67,1.51,3.57c1.36,1.33,3.52,1.4,5.07.3h0c.84-.6,1.77-1.05,2.73-1.34,1.75-.52,3.63-.52,5.38,0,.96.28,1.88.73,2.73,1.33h0c1.55,1.11,3.71,1.04,5.07-.3.93-.91,1.51-2.17,1.51-3.57s-.58-2.67-1.51-3.57Z"/><circle class="cls-1" cx="93" cy="463.67" r="5"/><path class="cls-1" d="M83.49,460.1c-1.36-1.33-3.52-1.4-5.07-.3h0c-.85.6-1.77,1.05-2.73,1.33-1.75.53-3.63.53-5.38,0-.96-.29-1.89-.74-2.73-1.34h0c-1.55-1.11-3.71-1.04-5.07.3-.93.91-1.51,2.17-1.51,3.57s.58,2.67,1.51,3.57c1.36,1.33,3.52,1.4,5.07.3h0c.84-.6,1.77-1.05,2.73-1.34,1.75-.52,3.63-.52,5.38,0,.96.28,1.88.73,2.73,1.33h0c1.55,1.11,3.71,1.04,5.07-.3.93-.91,1.51-2.17,1.51-3.57s-.58-2.67-1.51-3.57Z"/><path class="cls-1" d="M90.49,444.27c-1.36-1.33-3.52-1.4-5.07-.3h0c-.85.6-1.77,1.05-2.73,1.33-1.75.53-3.63.53-5.38,0-.96-.29-1.89-.74-2.73-1.34h0c-1.55-1.11-3.71-1.04-5.07.3-.93.91-1.51,2.17-1.51,3.57s.58,2.67,1.51,3.57c1.36,1.33,3.52,1.4,5.07.3h0c.84-.6,1.77-1.05,2.73-1.34,1.75-.52,3.63-.52,5.38,0,.96.28,1.88.73,2.73,1.33h0c1.55,1.11,3.71,1.04,5.07-.3.93-.91,1.51-2.17,1.51-3.57s-.58-2.67-1.51-3.57Z"/><circle class="cls-1" cx="100" cy="495.33" r="5"/><path class="cls-1" d="M90.49,491.75c-1.36-1.33-3.52-1.4-5.07-.3h0c-.85.6-1.77,1.05-2.73,1.33-1.75.53-3.63.53-5.38,0-.96-.29-1.89-.74-2.73-1.34h0c-1.55-1.11-3.71-1.04-5.07.3-.93.91-1.51,2.17-1.51,3.57s.58,2.67,1.51,3.57c1.36,1.33,3.52,1.4,5.07.3h0c.84-.6,1.77-1.05,2.73-1.34,1.75-.52,3.63-.52,5.38,0,.96.28,1.88.73,2.73,1.33h0c1.55,1.11,3.71,1.04,5.07-.3.93-.91,1.51-2.17,1.51-3.57s-.58-2.67-1.51-3.57Z"/><path class="cls-1" d="M100.49,475.93c-1.36-1.33-3.52-1.4-5.07-.3h0c-.85.6-1.77,1.05-2.73,1.33-1.75.53-3.63.53-5.38,0-.96-.29-1.89-.74-2.73-1.34h0c-1.55-1.11-3.71-1.04-5.07.3-.93.91-1.51,2.17-1.51,3.57s.58,2.67,1.51,3.57c1.36,1.33,3.52,1.4,5.07.3h0c.84-.6,1.77-1.05,2.73-1.34,1.75-.52,3.63-.52,5.38,0,.96.28,1.88.73,2.73,1.33h0c1.55,1.11,3.71,1.04,5.07-.3.93-.91,1.51-2.17,1.51-3.57s-.58-2.67-1.51-3.57Z"/><circle class="cls-1" cx="104" cy="526.99" r="5"/><path class="cls-1" d="M94.49,523.41c-1.36-1.33-3.52-1.4-5.07-.3h0c-.85.6-1.77,1.05-2.73,1.33-1.75.53-3.63.53-5.38,0-.96-.29-1.89-.74-2.73-1.34h0c-1.55-1.11-3.71-1.04-5.07.3-.93.91-1.51,2.17-1.51,3.57s.58,2.67,1.51,3.57c1.36,1.33,3.52,1.4,5.07.3h0c.84-.6,1.77-1.05,2.73-1.34,1.75-.52,3.63-.52,5.38,0,.96.28,1.88.73,2.73,1.33h0c1.55,1.11,3.71,1.04,5.07-.3.93-.91,1.51-2.17,1.51-3.57s-.58-2.67-1.51-3.57Z"/><path class="cls-1" d="M105.49,507.58c-1.36-1.33-3.52-1.4-5.07-.3h0c-.85.6-1.77,1.05-2.73,1.33-1.75.53-3.63.53-5.38,0-.96-.29-1.89-.74-2.73-1.34h0c-1.55-1.11-3.71-1.04-5.07.3-.93.91-1.51,2.17-1.51,3.57s.58,2.67,1.51,3.57c1.36,1.33,3.52,1.4,5.07.3h0c.84-.6,1.77-1.05,2.73-1.34,1.75-.52,3.63-.52,5.38,0,.96.28,1.88.73,2.73,1.33h0c1.55,1.11,3.71,1.04,5.07-.3.93-.91,1.51-2.17,1.51-3.57s-.58-2.67-1.51-3.57Z"/><circle class="cls-1" cx="104" cy="558.64" r="5"/><path class="cls-1" d="M94.49,555.07c-1.36-1.33-3.52-1.4-5.07-.3h0c-.85.6-1.77,1.05-2.73,1.33-1.75.53-3.63.53-5.38,0-.96-.29-1.89-.74-2.73-1.34h0c-1.55-1.11-3.71-1.04-5.07.3-.93.91-1.51,2.17-1.51,3.57s.58,2.67,1.51,3.57c1.36,1.33,3.52,1.4,5.07.3h0c.84-.6,1.77-1.05,2.73-1.34,1.75-.52,3.63-.52,5.38,0,.96.28,1.88.73,2.73,1.33h0c1.55,1.11,3.71,1.04,5.07-.3.93-.91,1.51-2.17,1.51-3.57s-.58-2.67-1.51-3.57Z"/><path class="cls-1" d="M107.49,539.24c-1.36-1.33-3.52-1.4-5.07-.3h0c-.85.6-1.77,1.05-2.73,1.33-1.75.53-3.63.53-5.38,0-.96-.29-1.89-.74-2.73-1.34h0c-1.55-1.11-3.71-1.04-5.07.3-.93.91-1.51,2.17-1.51,3.57s.58,2.67,1.51,3.57c1.36,1.33,3.52,1.4,5.07.3h0c.84-.6,1.77-1.05,2.73-1.34,1.75-.52,3.63-.52,5.38,0,.96.28,1.88.73,2.73,1.33h0c1.55,1.11,3.71,1.04,5.07-.3.93-.91,1.51-2.17,1.51-3.57s-.58-2.67-1.51-3.57Z"/></svg>